<?xml version="1.0" encoding="UTF-8"?>
<svg version="1.1" viewBox="0 0 1600 1600" width="1280" height="1280" xmlns="http://www.w3.org/2000/svg">
<path transform="translate(1065,933)" d="m0 0h81l51 2 41 3 38 4 24 4 24 6 19 11 5 4 12 6 29 8 12 4v1l-10-1-18-4-16-3-45-3-30-3h-5l1 3 17 3 4 2-3 1h-21l130 22 5 1h9l9 2 5 4 3 1v3l4 1v2l6 1v-3h9l1 5-1 1-15 3-12 3-4-1-2-6-2 6-9 8-3 3 2 1-1 4h2l2-5 6-4 10-1 1 4-3 1-1 5-2 1v8h2l4-9 8-3 5-3 3-3 8-1 3 3 2 12 3 40 2 47 2 88 1 38-5 3-15 2h-710l-5-2-2-3 1-76 1-50 1-31 2-30 3-12 3-3 6-2 3-7h-2l-1-5 3-2 2-10 3 1 1-2 4-1 5-5 6-1 2-4 6-1 2 2-1 2 2-1-1-9-5 1-17 12-13 6-6 3-3-1 5-4 14-8 11-7 9-5 5-1 5 1 14-7 17-6 51-10 7-1v-3l-12 1v2l5-1-1 2-11 1 2-2-3-1v-2l19-6 37-7 18-6 6-3 5-1 1-2-12 2-39 8-17 3-12 5-14 5h-3v-2l15-6 11-7 5-5 7-5 9-4 21-7 34-5 75-5zm-123 25 1 2zm2 0m385 2-9 2 4 2 4 3 13 1 2-2-10-5zm-401 6m2 0m-3 1m-4 1m-7 2m344 0m2 0m-23 0-7 2 4 2 5 1 3-3zm4 5m3 0m8 0m-2 2v1h5v-1zm11-1-6 2v1l12 1 4-2v-1zm12 1v2l2-1zm4 1-2 2h3zm2 1m-401 4m538 25-12 1-4 4 1 4 10-1 9 3v-5l3 2 1-2 1 2h2v2l-3-1v4l4-1v-3l2-1h-2v-2h-2l-2-4-5-2zm-16 6m30 3 1 2 1-2zm16 1-1 2h2zm-16 2m-2 2 1 2zm-651 1v2l2-1zm4 0m-27 10m650 5m-656 10m664 0v6h1v-6zm23 3m-20 2 1 3zm21 0m-25 1 1 3zm-661 1m668 0 1 2zm-4 1-1 4h-2v-3l-2 1 2 4h5l1-3zm10 0 1 3h6l-1-2-4 1v-2z"/>
<path transform="translate(543,864)" d="m0 0h51l59 3 47 3 35 2 4 2v15l-2 4v8l-6 11-6 5-16 5-33 7-13 3v6l2 5v10l-6 21-7 14-7 6-9 5-8 2-3 1v-2l-3 1 2 2-1 2-3 1-1 8-5 5-6-1 1-9 2 1v-6l-3-1-1 2v14l-2 8-3 33-1 15-1 31v109l1 45-7 3-10 1-42 1h-409l-2-3v-81l1-58 2-50 1-12v-29l2-13 7-8 11-9 4-2 1-4 5-1 1-2-7 3-3-1 11-7 4-2v-2l8-7 3-1v-2l5-5 7-6 14-10 10-7 22-13 25-10 15-8 16-5 13-5 5-4 16-6 21-10 16-5 28-6 22-3 21-2 75-4zm-124 26-31 2-46 8-24 5-3 2-9 3-26 9-14 7v2l-5 2-4 3-13 5-14 9-11 6-15 10-9 5-10 9-4 4-2 6 12-7 9-7 7-3 10-6v-2l5-2 17-10v2l-5 2-11 10v4h-4l2 4 12-12 13-10 18-10 14-6 29-7 6-2v-2l2-1v2h2l2-4-11 1-8 2h-5l42-12 32-7 24-6 32-3 16-3 1-2zm-105 16m14 11m-6 1m2 0m-5 1m0 3m-104 50 1 2 1-2zm4 0m-6 3m3 0m-5 1m-42 14-3 3 2 1v-2h3v-2zm-9 8m10 2 1 2zm451 2m-455 5-4 5 1 2 4-4zm1 3m-1 2m-5 2 1 2zm-1 2-2 4 3-2z"/>
<path transform="translate(582,330)" d="m0 0h43l26 2 19 3 15 4 14 2 2 2 5-2 5 3 1 7 3 3 1 3 3 3-1 5 4 1-1 7h3l2 2 1 3 10 8 10 9 8 7 8 8 7 10 11 21 5 15 5 24 4 30 1 17v19l-2 22-6 25-8 27-2 7-8 11h-2l-1 4h-2l-1 4h-2l-1 5-5 2-7 7h-2v2h-2l-2 4-21 21-8 7-10 7-3 1v2h-2v3l-8 6-4 2-4-1-4 3h-7l-1 3-6 1v2h-6l-16 4-20 3h-31l-31-3-22-4-12-3-17-7-15-9-14-11-10-9-14-14-7-8v-2l-4-2v-2h-2l-9-11-8-7-1 2-1-2v-5l-2-4-2-1-5-5 2 5 1 1v5h2l6 8 7 8 5 9-2 1-1-2h-2v4l-3 1-3-4v-2h-2l-7-11-5-7-4-11-4-18-3-6 1-2 3 5v-8l-6-28-2-27v-27l3-24 5-26 2-10 2-1-2-1 1-12-3-1 3-4v-11l11-17 9-9 7-8 20-20 7-8 8-10 16-10 11-5 15-4 5-1 20-1-1 2 12-3 16-2zm-48 7m-7 1-25 11-16 7-5 3-5 2-5 6 1 2 15-7 6-2h3l6-3 13-8 14-8 4-2v-1zm175 10v3h-2l2 7h7l1-4-2-2h-3v-2h-2zm11 12-2 3h4v-3zm-6 3 2 4 4 3h3v-2l-5-2v-3z"/>
<path transform="translate(1090,463)" d="m0 0h29l18 2 19 3 21 4 5 4 4 6-1-7 5 1 5 4 3 7 2-4 5 1 3 5-3 1h-6l-3 1-1 5-1 3h4l1 6 4-2-3-2v-3l4 2 4 4 2 1-2 4-1 6 5 5h-3l-4-3 4 4 8 7 12 5 1-1-3-3-1-4h-2l-2-7v-6l-4-1 5-1 8 4 8 6 6 10 4 9 8 28 3 17 2 22v54l-2 21-6 28-3 9-4 5-9 3-10 1-2-1-2 2-2-1-4 5h-2l-2 7-4 1-1 3h-2l-1 7-4 4h-2v-3l-2 1v5h-2l-1-2 2 11 1 6-7 8-7 7-10 5-18 3-37 2h-38l-34-3-23-4-18-8-7-7-5-10 1-6-1-4-4-2v-3l-5 2-3-3-3-1-3-9 2-1-4-1v-2l-4-1-4-5h-5l1 6-5-2-3-4-1-4-4-4-4-8-5-11-2-12-3-9-2-21v-40l3-42 4-17 7-17 8-10 9-8 11-9 9-8 4-2 2-7 9-8 6-8 8-7 10-5 17-4 36-4zm-100 42m214 1m-2 1m3 2-2 4h2l1-4zm-4 5m1 1m1 1m27 2m1 1m-250 10v3l4 2h3l-1-4zm251 4m1 1m-10 189m-268 3m11 1m-7 1m240 20m-206 1m5 0 1 2z"/>
<path transform="translate(628,1011)" d="m0 0h7v2l4 1h-2l-1 6h2v2l-2 1-2 5-2 4-1 4-5 1v-6-2l-5-4 1-2v-3l2-7h4zm-3 4 1 3zm4 0m1 1 1 2zm-6 2m4 11 1 2z"/>
<path transform="translate(718,698)" d="m0 0h3l-1 5-4 5-13 8-18 8-7 2h-5l5-4 14-6 11-6 11-8z"/>
<path transform="translate(407,431)" d="m0 0h2v5h-2l-1 2-1-2z"/>
<path transform="translate(1332,985)" d="m0 0h8l4 2-12-1z"/>
<path transform="translate(406,448)" d="m0 0 1 4v6l-2-4z"/>
<path transform="translate(1208,500)" d="m0 0 3 1-1 3z"/>
<path transform="translate(850,988)" d="m0 0h6v1l-6 1z"/>
<path transform="translate(871,983)" d="m0 0h3v2l-4-1z"/>
<path transform="translate(1313,983)" d="m0 0h6v1h-6z"/>
<path transform="translate(241,947)" d="m0 0 2 1-4 2z"/>
<path transform="translate(618,1023)" d="m0 0 3 3-3-1z"/>
<path transform="translate(1328,984)" d="m0 0 3 1-3 1z"/>
<path transform="translate(629 1e3)" d="m0 0 4 1z"/>
<path transform="translate(848,985)" d="m0 0 4 1z"/>
<path transform="translate(421,632)" d="m0 0 2 1-1 2z"/>
<path transform="translate(752,394)" d="m0 0 2 1-1 2z"/>
<path transform="translate(1359,988)" d="m0 0 3 1z"/>
<path transform="translate(227,962)" d="m0 0 1 2-2-1z"/>
<path transform="translate(230,959)" d="m0 0 2 1-2 1z"/>
<path transform="translate(427,640)" d="m0 0 3 1z"/>
<path transform="translate(404,441)" d="m0 0"/>
<path transform="translate(1434,1032)" d="m0 0 2 1z"/>
<path transform="translate(1439,1031)" d="m0 0 2 1z"/>
<path transform="translate(622,1027)" d="m0 0"/>
<path transform="translate(621,1006)" d="m0 0 2 1z"/>
<path transform="translate(1324,984)" d="m0 0 2 1z"/>
<path transform="translate(1304,981)" d="m0 0 2 1z"/>
<path transform="translate(1300,980)" d="m0 0"/>
<path transform="translate(409,436)" d="m0 0"/>
<path transform="translate(1416,1058)" d="m0 0"/>
<path transform="translate(1436,1031)" d="m0 0"/>
<path transform="translate(620,1020)" d="m0 0"/>
<path transform="translate(633,1009)" d="m0 0"/>
<path transform="translate(154,997)" d="m0 0"/>
<path transform="translate(155,996)" d="m0 0"/>
<path transform="translate(1345,986)" d="m0 0"/>
<path transform="translate(868,984)" d="m0 0"/>
<path transform="translate(185,979)" d="m0 0"/>
<path transform="translate(1240,972)" d="m0 0"/>
<path transform="translate(1239,971)" d="m0 0"/>
<path transform="translate(221,969)" d="m0 0"/>
<path transform="translate(229,961)" d="m0 0"/>
<path transform="translate(274,929)" d="m0 0"/>
<path transform="translate(287,925)" d="m0 0"/>
<path transform="translate(989,752)" d="m0 0"/>
<path transform="translate(976,744)" d="m0 0"/>
<path transform="translate(965,731)" d="m0 0"/>
<path transform="translate(692,714)" d="m0 0"/>
<path transform="translate(696,712)" d="m0 0"/>
<path transform="translate(700,710)" d="m0 0"/>
<path transform="translate(445,666)" d="m0 0"/>
<path transform="translate(441,662)" d="m0 0"/>
<path transform="translate(440,661)" d="m0 0"/>
<path transform="translate(439,660)" d="m0 0"/>
<path transform="translate(430,641)" d="m0 0"/>
<path transform="translate(424,637)" d="m0 0"/>
<path transform="translate(423,635)" d="m0 0"/>
<path transform="translate(402,599)" d="m0 0"/>
<path transform="translate(401,598)" d="m0 0"/>
<path transform="translate(1221,519)" d="m0 0"/>
<path transform="translate(1184,479)" d="m0 0"/>
<path transform="translate(407,462)" d="m0 0"/>
<path transform="translate(408,459)" d="m0 0"/>
<path transform="translate(409,429)" d="m0 0"/>
<path transform="translate(733,377)" d="m0 0"/>
<path transform="translate(721,362)" d="m0 0"/>
<path transform="translate(720,361)" d="m0 0"/>
</svg>
