<svg width="24" height="25" viewBox="0 0 24 25" fill="none" xmlns="http://www.w3.org/2000/svg">
<path d="M14 20.3789H14.75V19.6289H14V20.3789ZM9.99999 20.3789V19.6289H9.24999V20.3789H9.99999ZM18 16.3789H17.25V16.6896L17.4697 16.9092L18 16.3789ZM13.5 5.05891H12.75V5.65149L13.3265 5.78857L13.5 5.05891ZM10.5 5.05891L10.6729 5.7887L11.25 5.65197V5.05891H10.5ZM5.99999 16.3789L6.53032 16.9092L6.74999 16.6896V16.3789H5.99999ZM12 23.1289C13.5142 23.1289 14.75 21.8931 14.75 20.3789H13.25C13.25 21.0647 12.6858 21.6289 12 21.6289V23.1289ZM14 19.6289H9.99999V21.1289H14V19.6289ZM9.24999 20.3789C9.24999 21.8907 10.4733 23.1289 12 23.1289V21.6289C11.3066 21.6289 10.75 21.0671 10.75 20.3789H9.24999ZM18.75 16.3789V11.3789H17.25V16.3789H18.75ZM18.75 11.3789C18.75 8.04668 16.9478 5.10776 13.6735 4.32925L13.3265 5.78857C15.7722 6.37005 17.25 8.57113 17.25 11.3789H18.75ZM14.25 5.05891V4.37891H12.75V5.05891H14.25ZM14.25 4.37891C14.25 3.13469 13.2442 2.12891 12 2.12891V3.62891C12.4158 3.62891 12.75 3.96312 12.75 4.37891H14.25ZM12 2.12891C10.7558 2.12891 9.74999 3.13469 9.74999 4.37891H11.25C11.25 3.96312 11.5842 3.62891 12 3.62891V2.12891ZM9.74999 4.37891V5.05891H11.25V4.37891H9.74999ZM10.3271 4.32911C7.04171 5.10753 5.24999 8.03735 5.24999 11.3789H6.74999C6.74999 8.56046 8.21827 6.37029 10.6729 5.7887L10.3271 4.32911ZM5.24999 11.3789V16.3789H6.74999V11.3789H5.24999ZM5.46966 15.8486L4.17966 17.1386L5.24032 18.1992L6.53032 16.9092L5.46966 15.8486ZM4.17966 17.1386C3.08606 18.2322 3.83928 20.1289 5.40999 20.1289V18.6289C5.2007 18.6289 5.07392 18.3656 5.24032 18.1992L4.17966 17.1386ZM5.40999 20.1289H18.58V18.6289H5.40999V20.1289ZM18.58 20.1289C20.1347 20.1289 20.9252 18.2435 19.8203 17.1386L18.7597 18.1992C18.9147 18.3543 18.8053 18.6289 18.58 18.6289V20.1289ZM19.8203 17.1386L18.5303 15.8486L17.4697 16.9092L18.7597 18.1992L19.8203 17.1386Z" fill="#111111"/>
</svg>
