<svg width="30" height="25" viewBox="0 0 30 25" fill="none" xmlns="http://www.w3.org/2000/svg">
<path d="M21.25 23.75V21.25C21.25 19.9239 20.7232 18.6521 19.7855 17.7145C18.8479 16.7768 17.5761 16.25 16.25 16.25H6.25C4.92392 16.25 3.65215 16.7768 2.71447 17.7145C1.77678 18.6521 1.25 19.9239 1.25 21.25V23.75M28.75 23.75V21.25C28.7492 20.1422 28.3804 19.066 27.7017 18.1904C27.023 17.3148 26.0727 16.6895 25 16.4125M20 1.4125C21.0755 1.68788 22.0288 2.31338 22.7095 3.19039C23.3903 4.0674 23.7598 5.14604 23.7598 6.25625C23.7598 7.36646 23.3903 8.4451 22.7095 9.32211C22.0288 10.1991 21.0755 10.8246 20 11.1M16.25 6.25C16.25 9.01142 14.0114 11.25 11.25 11.25C8.48858 11.25 6.25 9.01142 6.25 6.25C6.25 3.48858 8.48858 1.25 11.25 1.25C14.0114 1.25 16.25 3.48858 16.25 6.25Z" stroke="#1E1E1E" stroke-width="2.5" stroke-linecap="round" stroke-linejoin="round"/>
</svg>
