<svg width="6" height="10" viewBox="0 0 6 10" fill="none" xmlns="http://www.w3.org/2000/svg">
<path d="M0.499242 8.23341L3.73258 5.00007L0.499242 1.76674C0.422091 1.68959 0.360891 1.598 0.319137 1.49719C0.277383 1.39639 0.255892 1.28835 0.255892 1.17924C0.255892 1.07013 0.277383 0.96209 0.319137 0.861287C0.360891 0.760483 0.422091 0.668891 0.499242 0.591739C0.576394 0.514588 0.667986 0.453388 0.76879 0.411634C0.869593 0.369879 0.977634 0.348389 1.08674 0.348389C1.19585 0.348389 1.30389 0.369879 1.4047 0.411634C1.5055 0.453388 1.59709 0.514588 1.67424 0.591739L5.49924 4.41674C5.82424 4.74174 5.82424 5.26674 5.49924 5.59174L1.67424 9.41674C1.59715 9.49399 1.50557 9.55528 1.40476 9.5971C1.30395 9.63892 1.19588 9.66044 1.08674 9.66044C0.977602 9.66044 0.869533 9.63892 0.768722 9.5971C0.667911 9.55528 0.576337 9.49399 0.499242 9.41674C0.182576 9.09174 0.174242 8.55841 0.499242 8.23341Z" fill="#111111"/>
</svg>
